<svg xmlns="http://www.w3.org/2000/svg" viewBox="80 30 260 310" role="img" aria-label="Projeto Nexo">
  <defs>
    <linearGradient id="pnMarkGold" x1="0" y1="0" x2="1" y2="1">
      <stop offset="0%" stop-color="#3d2412"/>
      <stop offset="28%" stop-color="#734A26"/>
      <stop offset="52%" stop-color="#D9984A"/>
      <stop offset="74%" stop-color="#734A26"/>
      <stop offset="100%" stop-color="#3d2412"/>
    </linearGradient>
    <linearGradient id="pnMarkSilver" x1="0" y1="0" x2="0.6" y2="1">
      <stop offset="0%" stop-color="#5a5a62"/>
      <stop offset="40%" stop-color="#2a2a2e"/>
      <stop offset="62%" stop-color="#0B0B0D"/>
      <stop offset="100%" stop-color="#3a3a40"/>
    </linearGradient>
  </defs>
  <g transform="translate(40,30)">
    <path d="M170 8 L288 76 L288 212 L170 280 L52 212 L52 76 Z" fill="none" stroke="url(#pnMarkGold)" stroke-width="15" stroke-linejoin="miter"/>
    <g fill="url(#pnMarkGold)">
      <rect x="104" y="60" width="7" height="182"/>
      <rect x="121" y="52" width="7" height="190"/>
      <rect x="138" y="44" width="7" height="198"/>
      <rect x="155" y="36" width="7" height="206"/>
    </g>
    <path d="M178 96 L266 148 L266 268 L232 248 L232 176 L178 144 Z" fill="url(#pnMarkSilver)"/>
    <g fill="#F2F2F2" opacity="0.5">
      <rect x="196" y="160" width="6" height="72"/>
      <rect x="208" y="167" width="6" height="72"/>
      <rect x="220" y="174" width="6" height="72"/>
    </g>
    <path d="M40 214 L196 262 L190 276 L36 228 Z" fill="url(#pnMarkGold)"/>
    <path d="M74 246 L214 288 L208 301 L70 260 Z" fill="url(#pnMarkSilver)" opacity="0.9"/>
  </g>
</svg>
